<svg width="200" height="200" viewBox="0 0 200 200" fill="none" xmlns="http://www.w3.org/2000/svg">
<rect width="200" height="200" fill="white"/>
<rect width="200" height="200" fill="#FE0420"/>
<path d="M78.6684 82.875C76.3684 82.875 74.2184 83.475 72.2184 84.675C70.2684 85.875 68.5434 87.475 67.0434 89.475C65.5934 91.475 64.4434 93.775 63.5934 96.375C62.7934 98.975 62.3934 101.65 62.3934 104.4C62.3934 108.15 63.1684 111.2 64.7184 113.55C66.3184 115.85 68.8934 117 72.4434 117C74.7434 117 76.8684 116.4 78.8184 115.2C80.8184 114 82.5434 112.4 83.9934 110.4C85.4934 108.4 86.6434 106.125 87.4434 103.575C88.2934 100.975 88.7184 98.275 88.7184 95.475C88.7184 91.725 87.9184 88.7 86.3184 86.4C84.7684 84.05 82.2184 82.875 78.6684 82.875ZM71.2434 127.05C68.1934 127.05 65.3934 126.55 62.8434 125.55C60.2934 124.55 58.0934 123.125 56.2434 121.275C54.3934 119.375 52.9434 117.075 51.8934 114.375C50.8934 111.675 50.3934 108.625 50.3934 105.225C50.3934 101.325 51.0684 97.45 52.4184 93.6C53.7684 89.75 55.6934 86.3 58.1934 83.25C60.7434 80.15 63.8434 77.65 67.4934 75.75C71.1434 73.8 75.2684 72.825 79.8684 72.825C82.9184 72.825 85.7184 73.325 88.2684 74.325C90.8184 75.325 93.0184 76.775 94.8684 78.675C96.7184 80.525 98.1434 82.8 99.1434 85.5C100.193 88.2 100.718 91.25 100.718 94.65C100.718 98.55 100.043 102.45 98.6934 106.35C97.3934 110.2 95.4684 113.675 92.9184 116.775C90.4184 119.825 87.3434 122.3 83.6934 124.2C80.0434 126.1 75.8934 127.05 71.2434 127.05Z" fill="white"/>
<path d="M130.331 73.425C133.481 73.425 136.306 73.775 138.806 74.475C141.356 75.125 143.506 76.1 145.256 77.4C147.006 78.65 148.356 80.2 149.306 82.05C150.256 83.9 150.731 85.975 150.731 88.275C150.731 92.025 150.006 95.2 148.556 97.8C147.106 100.4 145.106 102.5 142.556 104.1C140.006 105.7 137.006 106.85 133.556 107.55C130.106 108.25 126.356 108.6 122.306 108.6H119.381L115.181 126H103.556L115.781 74.775C118.481 74.275 121.031 73.925 123.431 73.725C125.881 73.525 128.181 73.425 130.331 73.425ZM129.356 83.25C128.506 83.25 127.781 83.275 127.181 83.325C126.581 83.375 125.981 83.425 125.381 83.475L121.781 98.775H124.706C126.806 98.775 128.706 98.625 130.406 98.325C132.156 97.975 133.631 97.425 134.831 96.675C136.081 95.925 137.031 94.975 137.681 93.825C138.381 92.625 138.731 91.175 138.731 89.475C138.731 87.225 137.906 85.625 136.256 84.675C134.656 83.725 132.356 83.25 129.356 83.25Z" fill="white"/>
</svg>
